
<svg width="898" height="304" viewBox="0 0 898 304" fill="none" xmlns="http://www.w3.org/2000/svg">
  <!-- Logo mark (V shape) -->
  <path d="M170 0L85 150L0 0H170Z" fill="#0055FF"/>
  
  <!-- Text "Vagas Remota" -->
  <path d="M278.125 110.5C280.725 103.7 285.125 103 293.125 103H318.125C326.125 103 330.525 103.7 333.125 110.5L377.125 234.5C379.725 241.3 375.325 242 367.325 242H342.325C334.325 242 329.925 241.3 327.325 234.5L283.325 110.5H278.125Z" fill="#00022D"/>
  <path d="M349.125 241.5L395.125 103H429.125L375.125 241.5H349.125Z" fill="#00022D"/>
  <path d="M432.125 241.5L478.125 103H512.125L465.125 241.5H432.125Z" fill="#00022D"/>
  <path d="M515.625 241.5L562.125 103H596.125L549.625 241.5H515.625Z" fill="#00022D"/>
  <path d="M598.125 241.5L644.625 103H678.625L632.125 241.5H598.125Z" fill="#00022D"/>
  <path d="M679.625 119.5H663.625V103.5H679.625V119.5Z" fill="#00022D"/>
  <path d="M790.625 156.5C800.625 169.7 800.625 177.333 800.625 196V222C800.625 232 801.292 238.167 805.625 242.5H771.625C767.959 238.167 766.625 232 766.625 222V189C766.625 178.333 764.625 169.5 752.625 156.5C740.625 143.5 733.958 138 721.625 138H705.625V242.5H673.625V103.5H721.625C743.625 103.5 753.625 106.1 771.625 119.5C789.625 132.9 794.958 147 790.625 156.5Z" fill="#00022D"/>
  <path d="M673.625 228.5C682.825 224.5 682.291 221.667 682.625 216V129.5C682.625 122.7 683.292 115.167 673.625 119.5V103.5H705.625V138H721.625C733.958 138 740.625 143.5 752.625 156.5C764.625 169.5 766.625 178.333 766.625 189V222C766.625 232 767.959 238.167 771.625 242.5H747.625C742.825 238.5 743.291 231.667 742.625 222V189C742.625 176.6 733.625 167.5 721.625 167.5H705.625V216C705.625 224.8 706.291 229.667 711.125 242.5H673.625V228.5Z" fill="#00022D"/>
</svg>
